# File produced by Open Asset Import Library (http://www.assimp.sf.net)
# (assimp v5.0.1588609223)

mtllib result.mtl

# 162 vertex positions
v  -0.027357122 -0.29306772 0.0021879808
v  0.096713714 -0.29306772 0.0021879808
v  0.096331246 -0.29306772 -0.0075465054
v  -0.027357122 -0.31549999 0.0021879808
v  0.096331246 -0.31549999 -0.0075465054
v  0.096713714 -0.31549999 0.0021879808
v  0.095186204 -0.29306772 -0.017220976
v  0.095186204 -0.31549999 -0.017220976
v  0.093285628 -0.29306772 -0.026775783
v  0.093285628 -0.31549999 -0.026775783
v  0.09064126 -0.29306772 -0.036152016
v  0.09064126 -0.31549999 -0.036152016
v  0.087269381 -0.29306772 -0.045291871
v  0.087269381 -0.31549999 -0.045291871
v  0.083190799 -0.29306772 -0.054138996
v  0.083190799 -0.31549999 -0.054138996
v  0.078430653 -0.29306772 -0.062638849
v  0.078430653 -0.31549999 -0.062638849
v  0.073018283 -0.29306772 -0.070739031
v  0.073018283 -0.31549999 -0.070739031
v  0.066987075 -0.29306772 -0.078389592
v  0.066987075 -0.31549999 -0.078389592
v  0.060374193 -0.29306772 -0.085543342
v  0.060374193 -0.31549999 -0.085543342
v  0.053220443 -0.29306772 -0.092156224
v  0.053220443 -0.31549999 -0.092156224
v  0.045569882 -0.29306772 -0.098187432
v  0.045569882 -0.31549999 -0.098187432
v  0.0374697 -0.29306772 -0.10359979
v  0.0374697 -0.31549999 -0.10359979
v  0.02896986 -0.29306772 -0.10835993
v  0.02896986 -0.31549999 -0.10835993
v  0.020122735 -0.29306772 -0.11243853
v  0.020122735 -0.31549999 -0.11243853
v  0.010982869 -0.29306772 -0.11581039
v  0.010982869 -0.31549999 -0.11581039
v  0.0016066302 -0.29306772 -0.11845478
v  0.0016066302 -0.31549999 -0.11845478
v  -0.0079481807 -0.29306772 -0.12035535
v  -0.0079481807 -0.31549999 -0.12035535
v  -0.017622638 -0.29306772 -0.1215004
v  -0.017622638 -0.31549999 -0.1215004
v  -0.027357137 -0.29306772 -0.12188284
v  -0.027357137 -0.31549999 -0.12188284
v  -0.037091605 -0.29306772 -0.1215004
v  -0.037091605 -0.31549999 -0.1215004
v  -0.046766065 -0.29306772 -0.12035535
v  -0.046766065 -0.31549999 -0.12035535
v  -0.056320876 -0.29306772 -0.11845478
v  -0.056320876 -0.31549999 -0.11845478
v  -0.065697111 -0.29306772 -0.11581039
v  -0.065697111 -0.31549999 -0.11581039
v  -0.074836977 -0.29306772 -0.11243853
v  -0.074836977 -0.31549999 -0.11243853
v  -0.083684102 -0.29306772 -0.10835993
v  -0.083684102 -0.31549999 -0.10835993
v  -0.092183962 -0.29306772 -0.10359979
v  -0.092183962 -0.31549999 -0.10359979
v  -0.10028411 -0.29306772 -0.098187447
v  -0.10028411 -0.31549999 -0.098187447
v  -0.10793468 -0.29306772 -0.092156231
v  -0.10793468 -0.31549999 -0.092156231
v  -0.11508844 -0.29306772 -0.085543349
v  -0.11508844 -0.31549999 -0.085543349
v  -0.12170132 -0.29306772 -0.078389592
v  -0.12170132 -0.31549999 -0.078389592
v  -0.12773253 -0.29306772 -0.070739031
v  -0.12773253 -0.31549999 -0.070739031
v  -0.1331449 -0.29306772 -0.062638849
v  -0.1331449 -0.31549999 -0.062638849
v  -0.13790505 -0.29306772 -0.054138992
v  -0.13790505 -0.31549999 -0.054138992
v  -0.14198363 -0.29306772 -0.045291863
v  -0.14198363 -0.31549999 -0.045291863
v  -0.14535551 -0.29306772 -0.036152001
v  -0.14535551 -0.31549999 -0.036152001
v  -0.14799987 -0.29306772 -0.026775794
v  -0.14799987 -0.31549999 -0.026775794
v  -0.14990044 -0.29306772 -0.017220981
v  -0.14990044 -0.31549999 -0.017220981
v  -0.15104549 -0.29306772 -0.0075465092
v  -0.15104549 -0.31549999 -0.0075465092
v  -0.15142795 -0.29306772 0.0021879808
v  -0.15142795 -0.31549999 0.0021879808
v  -0.15104549 -0.29306772 0.011922471
v  -0.15104549 -0.31549999 0.011922471
v  -0.14990044 -0.29306772 0.021596942
v  -0.14990044 -0.31549999 0.021596942
v  -0.14799987 -0.29306772 0.031151755
v  -0.14799987 -0.31549999 0.031151755
v  -0.14535551 -0.29306772 0.040527966
v  -0.14535551 -0.31549999 0.040527966
v  -0.14198363 -0.29306772 0.049667828
v  -0.14198363 -0.31549999 0.049667828
v  -0.13790505 -0.29306772 0.058514956
v  -0.13790505 -0.31549999 0.058514956
v  -0.1331449 -0.29306772 0.067014813
v  -0.1331449 -0.31549999 0.067014813
v  -0.12773253 -0.29306772 0.075114995
v  -0.12773253 -0.31549999 0.075114995
v  -0.12170132 -0.29306772 0.082765557
v  -0.12170132 -0.31549999 0.082765557
v  -0.11508844 -0.29306772 0.089919314
v  -0.11508844 -0.31549999 0.089919314
v  -0.10793468 -0.29306772 0.096532196
v  -0.10793468 -0.31549999 0.096532196
v  -0.10028411 -0.29306772 0.10256341
v  -0.10028411 -0.31549999 0.10256341
v  -0.092183933 -0.29306772 0.10797577
v  -0.092183933 -0.31549999 0.10797577
v  -0.083684072 -0.29306772 0.11273591
v  -0.083684072 -0.31549999 0.11273591
v  -0.07483694 -0.29306772 0.11681449
v  -0.07483694 -0.31549999 0.11681449
v  -0.065697141 -0.29306772 0.12018634
v  -0.065697141 -0.31549999 0.12018634
v  -0.056320902 -0.29306772 0.12283073
v  -0.056320902 -0.31549999 0.12283073
v  -0.046766095 -0.29306772 0.12473131
v  -0.046766095 -0.31549999 0.12473131
v  -0.037091613 -0.29306772 0.12587634
v  -0.037091613 -0.31549999 0.12587634
v  -0.027357129 -0.29306772 0.12625882
v  -0.027357129 -0.31549999 0.12625882
v  -0.017622646 -0.29306772 0.12587635
v  -0.017622646 -0.31549999 0.12587635
v  -0.0079481807 -0.29306772 0.12473131
v  -0.0079481807 -0.31549999 0.12473131
v  0.0016066302 -0.29306772 0.12283074
v  0.0016066302 -0.31549999 0.12283074
v  0.010982869 -0.29306772 0.12018636
v  0.010982869 -0.31549999 0.12018636
v  0.020122735 -0.29306772 0.11681449
v  0.020122735 -0.31549999 0.11681449
v  0.02896986 -0.29306772 0.1127359
v  0.02896986 -0.31549999 0.1127359
v  0.037469715 -0.29306772 0.10797576
v  0.037469715 -0.31549999 0.10797576
v  0.045569889 -0.29306772 0.10256339
v  0.045569889 -0.31549999 0.10256339
v  0.053220458 -0.29306772 0.096532181
v  0.053220458 -0.31549999 0.096532181
v  0.060374215 -0.29306772 0.089919291
v  0.060374215 -0.31549999 0.089919291
v  0.066987097 -0.29306772 0.082765535
v  0.066987097 -0.31549999 0.082765535
v  0.073018305 -0.29306772 0.075114965
v  0.073018305 -0.31549999 0.075114965
v  0.078430638 -0.29306772 0.067014843
v  0.078430638 -0.31549999 0.067014843
v  0.083190784 -0.29306772 0.058514986
v  0.083190784 -0.31549999 0.058514986
v  0.087269366 -0.29306772 0.049667854
v  0.087269366 -0.31549999 0.049667854
v  0.090641253 -0.29306772 0.040527996
v  0.090641253 -0.31549999 0.040527996
v  0.093285628 -0.29306772 0.031151755
v  0.093285628 -0.31549999 0.031151755
v  0.095186196 -0.29306772 0.021596942
v  0.095186196 -0.31549999 0.021596942
v  0.096331246 -0.29306772 0.011922471
v  0.096331246 -0.31549999 0.011922471

# 0 UV coordinates

# 162 vertex normals
vn 0 0.001 0
vn 0.00083180348 0.00055496348 -1.0893892e-05
vn 0.00082838448 0.00055496342 -7.6122473e-05
vn 0 -0.001 0
vn 0.00083009404 -0.00055496348 -5.4402073e-05
vn 0.00083180348 -0.00055496348 1.089388e-05
vn 0.00081985828 0.00055496342 -0.00014088252
vn 0.0008232668 -0.00055496348 -0.00011936272
vn 0.00080627744 0.00055496342 -0.00020477362
vn 0.00081136375 -0.00055496348 -0.00018358801
vn 0.0007877255 0.00055496348 -0.00026740256
vn 0.00079445844 -0.00055496348 -0.00024668092
vn 0.00076431729 0.00055496342 -0.00032838198
vn 0.00077265489 -0.00055496342 -0.00030825307
vn 0.00073619658 0.00055496348 -0.00038733732
vn 0.0007460881 -0.00055496348 -0.00036792408
vn 0.00070353691 0.00055496348 -0.00044390475
vn 0.00071492099 -0.00055496348 -0.00042532763
vn 0.00066653994 0.00055496342 -0.00049773511
vn 0.00067934638 -0.00055496342 -0.00048010843
vn 0.00062543293 0.00055496348 -0.00054849737
vn 0.00063958316 -0.00055496342 -0.00053192955
vn 0.00058047089 0.00055496348 -0.00059587677
vn 0.00059587677 -0.00055496348 -0.00058047089
vn 0.00053192955 0.00055496342 -0.00063958316
vn 0.00054849731 -0.00055496348 -0.00062543293
vn 0.00048010814 0.00055496348 -0.00067934662
vn 0.00049773487 -0.00055496342 -0.00066654
vn 0.00042532745 0.00055496348 -0.00071492116
vn 0.00044390437 -0.00055496342 -0.00070353714
vn 0.00036792477 0.00055496342 -0.00074608775
vn 0.00038733758 -0.00055496342 -0.00073619641
vn 0.00030825246 0.00055496348 -0.00077265518
vn 0.00032838224 -0.00055496348 -0.00076431717
vn 0.00024668116 0.00055496348 -0.00079445838
vn 0.00026740195 -0.00055496348 -0.00078772579
vn 0.00018358794 0.00055496348 -0.00081136375
vn 0.00020477417 -0.00055496354 -0.00080627744
vn 0.00011936299 0.00055496342 -0.00082326669
vn 0.00014088233 -0.00055496342 -0.00081985834
vn 5.4401e-05 0.00055496354 -0.00083009416
vn 7.6122327e-05 -0.00055496348 -0.0008283846
vn -1.0893289e-05 0.00055496342 -0.00083180348
vn 1.0893187e-05 -0.00055496342 -0.00083180342
vn -7.6122371e-05 0.00055496348 -0.0008283846
vn -5.4401062e-05 -0.00055496342 -0.00083009404
vn -0.00014088233 0.00055496342 -0.00081985834
vn -0.00011936299 -0.00055496342 -0.00082326669
vn -0.00020477419 0.00055496354 -0.00080627744
vn -0.00018358794 -0.00055496348 -0.00081136375
vn -0.00026740195 0.00055496348 -0.00078772579
vn -0.00024668116 -0.00055496348 -0.00079445838
vn -0.00032838224 0.00055496348 -0.00076431717
vn -0.00030825246 -0.00055496348 -0.00077265518
vn -0.00038733723 0.00055496342 -0.00073619658
vn -0.0003679246 -0.00055496342 -0.00074608781
vn -0.00044390446 0.00055496348 -0.00070353714
vn -0.00042532719 -0.00055496348 -0.00071492128
vn -0.00049773534 0.00055496348 -0.00066653971
vn -0.00048010852 -0.00055496348 -0.00067934638
vn -0.00054849696 0.00055496348 -0.00062543323
vn -0.00053192955 -0.00055496342 -0.00063958316
vn -0.00059587683 0.00055496348 -0.00058047089
vn -0.00058047066 -0.00055496348 -0.00059587712
vn -0.00063958328 0.00055496342 -0.00053192931
vn -0.00062543311 -0.00055496342 -0.00054849708
vn -0.00067934638 0.00055496342 -0.00048010846
vn -0.00066653994 -0.00055496342 -0.00049773511
vn -0.00071492104 0.00055496342 -0.00042532751
vn -0.00070353702 -0.00055496348 -0.00044390469
vn -0.00074608799 0.00055496342 -0.00036792428
vn -0.00073619653 -0.00055496342 -0.00038733732
vn -0.00077265513 0.00055496342 -0.0003082527
vn -0.00076431729 -0.00055496342 -0.00032838198
vn -0.00079445832 0.00055496342 -0.00024668101
vn -0.00078772561 -0.00055496342 -0.00026740221
vn -0.00081136375 0.00055496348 -0.0001835877
vn -0.00080627744 -0.00055496348 -0.00020477378
vn -0.0008232668 0.00055496348 -0.00011936291
vn -0.0008198584 -0.00055496348 -0.00014088227
vn -0.00083009398 0.00055496348 -5.4402281e-05
vn -0.00082838454 -0.00055496348 -7.6122909e-05
vn -0.00083180348 0.00055496348 1.0893884e-05
vn -0.00083180348 -0.00055496348 -1.0893884e-05
vn -0.00082838454 0.00055496348 7.6122902e-05
vn -0.00083009398 -0.00055496348 5.4402281e-05
vn -0.0008198584 0.00055496348 0.00014088227
vn -0.0008232668 -0.00055496348 0.00011936291
vn -0.00080627744 0.00055496348 0.00020477378
vn -0.0008113638 -0.00055496348 0.0001835877
vn -0.00078772561 0.00055496342 0.00026740221
vn -0.00079445832 -0.00055496342 0.00024668101
vn -0.00076431729 0.00055496342 0.00032838198
vn -0.00077265513 -0.00055496342 0.0003082527
vn -0.00073619653 0.00055496342 0.00038733732
vn -0.00074608799 -0.00055496342 0.00036792428
vn -0.00070353702 0.00055496348 0.00044390472
vn -0.00071492104 -0.00055496342 0.00042532751
vn -0.00066653994 0.00055496342 0.00049773511
vn -0.00067934638 -0.00055496342 0.00048010846
vn -0.00062543311 0.00055496342 0.00054849696
vn -0.00063958328 -0.00055496342 0.00053192931
vn -0.00058047066 0.00055496348 0.00059587712
vn -0.00059587683 -0.00055496348 0.00058047089
vn -0.00053192955 0.00055496342 0.00063958316
vn -0.00054849696 -0.00055496348 0.00062543317
vn -0.00048010825 0.00055496348 0.0006793465
vn -0.00049773516 -0.00055496342 0.00066653977
vn -0.00042532705 0.00055496342 0.00071492133
vn -0.00044390422 -0.00055496348 0.00070353725
vn -0.00036792373 0.00055496342 0.00074608828
vn -0.00038733683 -0.00055496348 0.00073619693
vn -0.0003082529 0.00055496342 0.00077265507
vn -0.00032838175 -0.00055496342 0.0007643174
vn -0.00024668119 0.00055496348 0.00079445826
vn -0.00026740262 -0.00055496348 0.0007877255
vn -0.00018358856 0.00055496348 0.00081136357
vn -0.00020477419 -0.00055496354 0.00080627744
vn -0.00011936243 0.00055496348 0.0008232668
vn -0.00014088271 -0.00055496348 0.00081985828
vn -5.4402266e-05 0.00055496342 0.00083009404
vn -7.6122211e-05 -0.00055496342 0.00082838454
vn 1.0893671e-05 0.00055496342 0.00083180342
vn -1.0894323e-05 -0.00055496342 0.00083180342
vn 7.6122516e-05 0.00055496348 0.0008283846
vn 5.4402099e-05 -0.00055496348 0.00083009404
vn 0.00014088211 0.00055496348 0.00081985845
vn 0.00011936252 -0.00055496348 0.0008232668
vn 0.00020477419 0.00055496354 0.00080627744
vn 0.00018358794 -0.00055496348 0.00081136375
vn 0.00026740195 0.00055496348 0.00078772579
vn 0.00024668116 -0.00055496348 0.00079445838
vn 0.00032838224 0.00055496348 0.00076431717
vn 0.00030825246 -0.00055496348 0.00077265518
vn 0.00038733723 0.00055496342 0.00073619658
vn 0.00036792463 -0.00055496342 0.00074608787
vn 0.00044390475 0.00055496348 0.00070353691
vn 0.00042532731 -0.00055496348 0.00071492122
vn 0.00049773487 0.00055496342 0.00066654
vn 0.00048010852 -0.00055496348 0.00067934638
vn 0.00054849725 0.00055496348 0.00062543299
vn 0.00053192925 -0.00055496348 0.00063958333
vn 0.00059587695 0.00055496348 0.00058047072
vn 0.00058047107 -0.00055496348 0.00059587671
vn 0.00063958351 0.00055496348 0.00053192914
vn 0.00062543323 -0.00055496348 0.0005484969
vn 0.00067934644 0.00055496348 0.00048010846
vn 0.00066654006 -0.00055496342 0.00049773487
vn 0.00071492116 0.00055496348 0.00042532748
vn 0.00070353691 -0.00055496348 0.00044390475
vn 0.00074608804 0.00055496342 0.00036792428
vn 0.00073619658 -0.00055496342 0.00038733723
vn 0.00077265489 0.00055496342 0.00030825313
vn 0.00076431711 -0.00055496342 0.00032838222
vn 0.00079445826 0.00055496348 0.00024668121
vn 0.0007877255 -0.00055496348 0.00026740265
vn 0.0008113638 0.00055496348 0.00018358768
vn 0.00080627744 -0.00055496348 0.00020477374
vn 0.0008232668 0.00055496348 0.00011936291
vn 0.00081985834 -0.00055496342 0.00014088226
vn 0.00083009398 0.00055496348 5.4402281e-05
vn 0.00082838454 -0.00055496348 7.6122909e-05

# Mesh 'mesh_id29' with 320 faces
g mesh_id29
usemtl Material_54
f  1//1 2//2 3//3
f  4//4 5//5 6//6
f  2//2 5//5 3//3
f  5//5 2//2 6//6
f  1//1 3//3 7//7
f  4//4 8//8 5//5
f  3//3 8//8 7//7
f  8//8 3//3 5//5
f  1//1 7//7 9//9
f  4//4 10//10 8//8
f  7//7 10//10 9//9
f  10//10 7//7 8//8
f  1//1 9//9 11//11
f  4//4 12//12 10//10
f  9//9 12//12 11//11
f  12//12 9//9 10//10
f  1//1 11//11 13//13
f  4//4 14//14 12//12
f  11//11 14//14 13//13
f  14//14 11//11 12//12
f  1//1 13//13 15//15
f  4//4 16//16 14//14
f  13//13 16//16 15//15
f  16//16 13//13 14//14
f  1//1 15//15 17//17
f  4//4 18//18 16//16
f  15//15 18//18 17//17
f  18//18 15//15 16//16
f  1//1 17//17 19//19
f  4//4 20//20 18//18
f  17//17 20//20 19//19
f  20//20 17//17 18//18
f  1//1 19//19 21//21
f  4//4 22//22 20//20
f  19//19 22//22 21//21
f  22//22 19//19 20//20
f  1//1 21//21 23//23
f  4//4 24//24 22//22
f  21//21 24//24 23//23
f  24//24 21//21 22//22
f  1//1 23//23 25//25
f  4//4 26//26 24//24
f  23//23 26//26 25//25
f  26//26 23//23 24//24
f  1//1 25//25 27//27
f  4//4 28//28 26//26
f  25//25 28//28 27//27
f  28//28 25//25 26//26
f  1//1 27//27 29//29
f  4//4 30//30 28//28
f  27//27 30//30 29//29
f  30//30 27//27 28//28
f  1//1 29//29 31//31
f  4//4 32//32 30//30
f  29//29 32//32 31//31
f  32//32 29//29 30//30
f  1//1 31//31 33//33
f  4//4 34//34 32//32
f  31//31 34//34 33//33
f  34//34 31//31 32//32
f  1//1 33//33 35//35
f  4//4 36//36 34//34
f  33//33 36//36 35//35
f  36//36 33//33 34//34
f  1//1 35//35 37//37
f  4//4 38//38 36//36
f  35//35 38//38 37//37
f  38//38 35//35 36//36
f  1//1 37//37 39//39
f  4//4 40//40 38//38
f  37//37 40//40 39//39
f  40//40 37//37 38//38
f  1//1 39//39 41//41
f  4//4 42//42 40//40
f  39//39 42//42 41//41
f  42//42 39//39 40//40
f  1//1 41//41 43//43
f  4//4 44//44 42//42
f  41//41 44//44 43//43
f  44//44 41//41 42//42
f  1//1 43//43 45//45
f  4//4 46//46 44//44
f  43//43 46//46 45//45
f  46//46 43//43 44//44
f  1//1 45//45 47//47
f  4//4 48//48 46//46
f  45//45 48//48 47//47
f  48//48 45//45 46//46
f  1//1 47//47 49//49
f  4//4 50//50 48//48
f  47//47 50//50 49//49
f  50//50 47//47 48//48
f  1//1 49//49 51//51
f  4//4 52//52 50//50
f  49//49 52//52 51//51
f  52//52 49//49 50//50
f  1//1 51//51 53//53
f  4//4 54//54 52//52
f  51//51 54//54 53//53
f  54//54 51//51 52//52
f  1//1 53//53 55//55
f  4//4 56//56 54//54
f  53//53 56//56 55//55
f  56//56 53//53 54//54
f  1//1 55//55 57//57
f  4//4 58//58 56//56
f  55//55 58//58 57//57
f  58//58 55//55 56//56
f  1//1 57//57 59//59
f  4//4 60//60 58//58
f  57//57 60//60 59//59
f  60//60 57//57 58//58
f  1//1 59//59 61//61
f  4//4 62//62 60//60
f  59//59 62//62 61//61
f  62//62 59//59 60//60
f  1//1 61//61 63//63
f  4//4 64//64 62//62
f  61//61 64//64 63//63
f  64//64 61//61 62//62
f  1//1 63//63 65//65
f  4//4 66//66 64//64
f  63//63 66//66 65//65
f  66//66 63//63 64//64
f  1//1 65//65 67//67
f  4//4 68//68 66//66
f  65//65 68//68 67//67
f  68//68 65//65 66//66
f  1//1 67//67 69//69
f  4//4 70//70 68//68
f  67//67 70//70 69//69
f  70//70 67//67 68//68
f  1//1 69//69 71//71
f  4//4 72//72 70//70
f  69//69 72//72 71//71
f  72//72 69//69 70//70
f  1//1 71//71 73//73
f  4//4 74//74 72//72
f  71//71 74//74 73//73
f  74//74 71//71 72//72
f  1//1 73//73 75//75
f  4//4 76//76 74//74
f  73//73 76//76 75//75
f  76//76 73//73 74//74
f  1//1 75//75 77//77
f  4//4 78//78 76//76
f  75//75 78//78 77//77
f  78//78 75//75 76//76
f  1//1 77//77 79//79
f  4//4 80//80 78//78
f  77//77 80//80 79//79
f  80//80 77//77 78//78
f  1//1 79//79 81//81
f  4//4 82//82 80//80
f  79//79 82//82 81//81
f  82//82 79//79 80//80
f  1//1 81//81 83//83
f  4//4 84//84 82//82
f  81//81 84//84 83//83
f  84//84 81//81 82//82
f  1//1 83//83 85//85
f  4//4 86//86 84//84
f  83//83 86//86 85//85
f  86//86 83//83 84//84
f  1//1 85//85 87//87
f  4//4 88//88 86//86
f  85//85 88//88 87//87
f  88//88 85//85 86//86
f  1//1 87//87 89//89
f  4//4 90//90 88//88
f  87//87 90//90 89//89
f  90//90 87//87 88//88
f  1//1 89//89 91//91
f  4//4 92//92 90//90
f  89//89 92//92 91//91
f  92//92 89//89 90//90
f  1//1 91//91 93//93
f  4//4 94//94 92//92
f  91//91 94//94 93//93
f  94//94 91//91 92//92
f  1//1 93//93 95//95
f  4//4 96//96 94//94
f  93//93 96//96 95//95
f  96//96 93//93 94//94
f  1//1 95//95 97//97
f  4//4 98//98 96//96
f  95//95 98//98 97//97
f  98//98 95//95 96//96
f  1//1 97//97 99//99
f  4//4 100//100 98//98
f  97//97 100//100 99//99
f  100//100 97//97 98//98
f  1//1 99//99 101//101
f  4//4 102//102 100//100
f  99//99 102//102 101//101
f  102//102 99//99 100//100
f  1//1 101//101 103//103
f  4//4 104//104 102//102
f  101//101 104//104 103//103
f  104//104 101//101 102//102
f  1//1 103//103 105//105
f  4//4 106//106 104//104
f  103//103 106//106 105//105
f  106//106 103//103 104//104
f  1//1 105//105 107//107
f  4//4 108//108 106//106
f  105//105 108//108 107//107
f  108//108 105//105 106//106
f  1//1 107//107 109//109
f  4//4 110//110 108//108
f  107//107 110//110 109//109
f  110//110 107//107 108//108
f  1//1 109//109 111//111
f  4//4 112//112 110//110
f  109//109 112//112 111//111
f  112//112 109//109 110//110
f  1//1 111//111 113//113
f  4//4 114//114 112//112
f  111//111 114//114 113//113
f  114//114 111//111 112//112
f  1//1 113//113 115//115
f  4//4 116//116 114//114
f  113//113 116//116 115//115
f  116//116 113//113 114//114
f  1//1 115//115 117//117
f  4//4 118//118 116//116
f  115//115 118//118 117//117
f  118//118 115//115 116//116
f  1//1 117//117 119//119
f  4//4 120//120 118//118
f  117//117 120//120 119//119
f  120//120 117//117 118//118
f  1//1 119//119 121//121
f  4//4 122//122 120//120
f  119//119 122//122 121//121
f  122//122 119//119 120//120
f  1//1 121//121 123//123
f  4//4 124//124 122//122
f  121//121 124//124 123//123
f  124//124 121//121 122//122
f  1//1 123//123 125//125
f  4//4 126//126 124//124
f  123//123 126//126 125//125
f  126//126 123//123 124//124
f  1//1 125//125 127//127
f  4//4 128//128 126//126
f  125//125 128//128 127//127
f  128//128 125//125 126//126
f  1//1 127//127 129//129
f  4//4 130//130 128//128
f  127//127 130//130 129//129
f  130//130 127//127 128//128
f  1//1 129//129 131//131
f  4//4 132//132 130//130
f  129//129 132//132 131//131
f  132//132 129//129 130//130
f  1//1 131//131 133//133
f  4//4 134//134 132//132
f  131//131 134//134 133//133
f  134//134 131//131 132//132
f  1//1 133//133 135//135
f  4//4 136//136 134//134
f  133//133 136//136 135//135
f  136//136 133//133 134//134
f  1//1 135//135 137//137
f  4//4 138//138 136//136
f  135//135 138//138 137//137
f  138//138 135//135 136//136
f  1//1 137//137 139//139
f  4//4 140//140 138//138
f  137//137 140//140 139//139
f  140//140 137//137 138//138
f  1//1 139//139 141//141
f  4//4 142//142 140//140
f  139//139 142//142 141//141
f  142//142 139//139 140//140
f  1//1 141//141 143//143
f  4//4 144//144 142//142
f  141//141 144//144 143//143
f  144//144 141//141 142//142
f  1//1 143//143 145//145
f  4//4 146//146 144//144
f  143//143 146//146 145//145
f  146//146 143//143 144//144
f  1//1 145//145 147//147
f  4//4 148//148 146//146
f  145//145 148//148 147//147
f  148//148 145//145 146//146
f  1//1 147//147 149//149
f  4//4 150//150 148//148
f  147//147 150//150 149//149
f  150//150 147//147 148//148
f  1//1 149//149 151//151
f  4//4 152//152 150//150
f  149//149 152//152 151//151
f  152//152 149//149 150//150
f  1//1 151//151 153//153
f  4//4 154//154 152//152
f  151//151 154//154 153//153
f  154//154 151//151 152//152
f  1//1 153//153 155//155
f  4//4 156//156 154//154
f  153//153 156//156 155//155
f  156//156 153//153 154//154
f  1//1 155//155 157//157
f  4//4 158//158 156//156
f  155//155 158//158 157//157
f  158//158 155//155 156//156
f  1//1 157//157 159//159
f  4//4 160//160 158//158
f  157//157 160//160 159//159
f  160//160 157//157 158//158
f  1//1 159//159 161//161
f  4//4 162//162 160//160
f  159//159 162//162 161//161
f  162//162 159//159 160//160
f  1//1 161//161 2//2
f  4//4 6//6 162//162
f  161//161 6//6 2//2
f  6//6 161//161 162//162

